<?xml version="1.0" standalone="no"?>
<!DOCTYPE svg PUBLIC "-//W3C//DTD SVG 20010904//EN"
 "http://www.w3.org/TR/2001/REC-SVG-20010904/DTD/svg10.dtd">
<svg version="1.0" xmlns="http://www.w3.org/2000/svg"
 width="106.000000pt" height="94.000000pt" viewBox="0 0 106.000000 94.000000"
 preserveAspectRatio="xMidYMid meet">

<g transform="translate(0.000000,94.000000) scale(0.100000,-0.100000)"
fill="#000000" stroke="none">
<path d="M0 470 l0 -470 530 0 530 0 0 470 0 470 -530 0 -530 0 0 -470z m881
291 l29 -29 0 -272 0 -272 -29 -29 -29 -29 -272 0 -272 0 -29 29 -29 29 0 272
0 272 29 29 29 29 272 0 272 0 29 -29z"/>
<path d="M473 478 l-100 -193 104 -3 c57 -1 149 -1 206 0 l104 3 -100 193
c-55 105 -103 192 -107 192 -4 0 -52 -87 -107 -192z"/>
</g>
</svg>
